<?xml version="1.0" standalone="no"?>
<!DOCTYPE svg PUBLIC "-//W3C//DTD SVG 20010904//EN"
 "http://www.w3.org/TR/2001/REC-SVG-20010904/DTD/svg10.dtd">
<svg version="1.0" xmlns="http://www.w3.org/2000/svg"
 width="2244.000000pt" height="2244.000000pt" viewBox="0 0 2244.000000 2244.000000"
 preserveAspectRatio="xMidYMid meet">

<g transform="translate(0.000000,2244.000000) scale(0.100000,-0.100000)"
fill="#000000" stroke="none">
<path d="M0 21150 c0 -1177 1 -1293 17 -1331 15 -38 15 -45 0 -88 -23 -61 -21
-108 4 -161 12 -24 25 -69 29 -101 9 -61 35 -124 74 -176 13 -18 31 -63 41
-100 10 -37 48 -167 85 -288 72 -231 90 -309 90 -384 0 -25 7 -68 16 -96 41
-131 35 -198 -23 -283 -47 -68 -50 -131 -11 -218 15 -32 34 -95 43 -139 30
-149 67 -203 267 -381 45 -41 57 -88 46 -184 -4 -41 -12 -116 -18 -167 -6 -58
-19 -113 -35 -149 -32 -72 -42 -177 -25 -259 7 -33 30 -101 51 -151 27 -63 43
-120 53 -190 12 -84 20 -110 55 -169 77 -132 93 -244 62 -435 -8 -47 -8 -96 0
-177 14 -129 9 -149 -53 -220 -62 -72 -55 -154 22 -253 49 -63 69 -115 96
-256 40 -206 40 -232 11 -291 -14 -27 -33 -55 -42 -63 -9 -8 -28 -37 -43 -64
-45 -88 -31 -203 32 -255 8 -6 45 -18 82 -26 124 -26 144 -88 78 -245 -31 -73
-37 -101 -44 -200 -9 -127 -23 -179 -75 -270 -47 -83 -46 -120 4 -214 21 -41
42 -93 45 -117 16 -105 41 -183 81 -253 50 -88 49 -113 -3 -185 -17 -23 -43
-73 -58 -111 -22 -57 -26 -79 -21 -125 6 -58 44 -138 72 -148 33 -13 55 -69
55 -141 0 -88 23 -122 114 -165 87 -41 111 -76 111 -161 0 -36 -6 -85 -14
-110 -13 -44 -13 -49 19 -133 l34 -88 -22 -102 c-28 -131 -42 -220 -42 -277 0
-67 37 -137 103 -193 32 -27 60 -59 63 -71 3 -14 -5 -48 -20 -85 -52 -122 -45
-186 30 -298 61 -91 64 -114 23 -194 -44 -87 -51 -144 -28 -242 23 -95 23
-119 4 -184 -15 -50 -35 -73 -126 -142 -76 -58 -87 -126 -37 -221 20 -39 33
-80 36 -115 5 -63 -10 -92 -88 -170 -28 -27 -69 -80 -91 -117 -34 -55 -43 -81
-50 -145 -33 -272 -36 -281 -114 -363 -97 -100 -104 -139 -55 -285 34 -101 36
-124 14 -187 -11 -33 -35 -65 -90 -117 -62 -60 -83 -87 -119 -164 -67 -137
-78 -194 -73 -361 4 -128 7 -147 33 -211 41 -96 40 -159 -2 -245 -58 -118 -65
-191 -32 -310 23 -84 20 -119 -17 -192 -26 -52 -29 -90 -14 -183 7 -47 6 -77
-5 -130 -8 -39 -18 -104 -21 -145 -8 -84 -20 -115 -75 -180 -54 -64 -69 -107
-69 -192 0 -86 20 -137 83 -212 121 -145 177 -239 177 -298 0 -50 -10 -69 -79
-144 -82 -91 -124 -164 -129 -230 -7 -89 14 -128 127 -233 82 -76 106 -104
141 -173 24 -45 65 -116 92 -157 27 -42 58 -105 70 -145 11 -39 47 -124 79
-188 53 -106 59 -124 59 -180 0 -74 21 -121 86 -196 55 -63 102 -88 198 -108
115 -24 147 -43 200 -117 26 -36 63 -80 83 -98 20 -17 58 -58 85 -90 33 -39
61 -62 86 -70 20 -6 55 -20 77 -30 22 -10 66 -28 98 -38 87 -30 109 -50 137
-126 19 -50 32 -70 54 -82 27 -14 32 -14 60 2 17 10 42 28 56 40 51 46 90 59
180 60 73 0 92 -4 136 -27 38 -20 72 -28 135 -33 88 -7 128 -22 224 -83 66
-42 130 -50 207 -25 52 17 67 17 190 6 73 -7 186 -17 250 -22 94 -8 132 -16
190 -41 41 -17 113 -37 163 -45 50 -7 164 -32 255 -55 149 -38 173 -42 247
-37 98 7 171 35 204 80 22 30 23 39 21 145 -3 105 -2 116 20 148 27 40 69 62
152 79 37 8 130 48 236 101 l175 87 111 6 c111 7 112 7 165 48 30 22 92 60
138 84 133 70 168 129 150 256 -16 114 7 163 84 178 114 22 128 28 172 72 51
51 67 95 83 240 12 103 29 142 112 254 44 60 54 68 99 79 27 6 59 9 71 5 41
-13 131 6 163 34 26 24 30 34 31 87 3 77 22 116 66 131 50 17 111 16 156 -3
59 -24 201 -120 218 -146 11 -18 14 -55 14 -164 -1 -121 2 -145 18 -169 17
-26 107 -75 139 -75 18 0 72 -55 92 -93 20 -40 8 -85 -37 -132 -44 -46 -60
-94 -60 -183 0 -72 15 -114 65 -182 39 -53 63 -64 155 -75 69 -7 93 -23 157
-100 27 -33 72 -81 98 -105 144 -133 157 -159 136 -263 -38 -186 -36 -246 9
-337 38 -76 43 -104 26 -143 -14 -34 -14 -34 -96 -41 -45 -4 -96 -14 -114 -22
-44 -23 -114 -92 -137 -137 -18 -34 -19 -44 -8 -120 21 -140 8 -165 -150 -292
-100 -80 -121 -93 -193 -121 -74 -28 -106 -58 -138 -131 -34 -77 -68 -112
-174 -180 -56 -36 -109 -75 -119 -87 -10 -11 -37 -59 -59 -106 -89 -184 -153
-254 -482 -533 -64 -55 -95 -110 -120 -212 -18 -75 -58 -144 -136 -235 -53
-62 -80 -109 -80 -140 l0 -20 1200 0 1199 0 25 82 c14 46 33 115 41 153 9 39
31 95 49 125 18 30 59 105 90 166 82 159 126 206 251 264 137 65 226 158 240
253 15 104 27 137 49 143 29 7 89 -28 103 -59 6 -13 46 -50 90 -83 l78 -59 90
0 c64 -1 99 -6 121 -17 17 -10 67 -63 110 -119 43 -56 84 -106 89 -113 20 -22
101 -83 160 -120 33 -20 80 -52 105 -71 31 -23 56 -34 82 -34 54 -1 77 -13
143 -74 55 -51 66 -57 130 -68 80 -15 136 -16 216 -4 69 9 113 -11 209 -95 80
-71 109 -86 193 -100 55 -10 78 -9 136 4 38 9 97 16 131 16 79 0 104 14 179
99 41 46 74 74 98 82 51 16 133 4 217 -33 57 -25 91 -33 172 -39 117 -8 163
-27 229 -93 24 -23 58 -49 76 -59 81 -40 221 -86 314 -102 55 -9 129 -24 164
-32 54 -14 79 -14 174 -4 60 7 122 18 138 26 41 22 100 18 161 -10 45 -21 68
-25 150 -25 53 0 108 4 122 10 34 13 152 106 162 128 4 9 10 70 13 134 6 116
6 118 39 150 l32 33 108 0 108 0 53 45 c116 99 121 104 121 153 0 24 -5 69
-11 98 -19 96 -13 144 27 217 23 43 41 94 49 144 9 48 27 102 50 146 35 66 36
71 25 113 -12 44 -55 114 -86 140 -9 8 -36 55 -59 104 -24 50 -57 104 -75 120
-52 50 -73 91 -67 133 8 47 93 134 207 212 139 95 190 158 190 235 -1 93 -65
129 -189 105 -30 -6 -93 -15 -140 -20 -98 -11 -120 -26 -136 -93 -10 -40 -12
-42 -52 -45 -74 -5 -137 42 -148 112 -11 67 -34 105 -76 126 -43 22 -89 26
-106 9 -9 -9 -15 0 -23 32 -18 65 -62 100 -151 121 -42 10 -102 18 -135 18
-79 0 -105 17 -234 149 -91 93 -111 110 -152 119 -114 28 -166 9 -311 -112
-43 -36 -95 -70 -115 -76 -20 -6 -94 -14 -164 -17 -173 -8 -278 12 -408 77
-134 67 -188 83 -258 76 -165 -18 -169 -18 -203 -1 -77 39 -121 86 -162 174
-28 59 -53 96 -85 125 -148 133 -250 244 -280 305 -18 35 -32 75 -32 89 0 19
24 48 89 112 113 109 130 156 96 266 -8 27 -15 65 -15 84 0 48 44 202 70 247
23 39 117 122 283 248 122 93 152 141 151 239 -1 52 -10 97 -33 165 -45 129
-41 143 59 238 85 81 88 86 125 216 31 108 41 125 125 207 63 61 69 70 98 162
17 54 43 115 57 137 32 47 193 188 290 252 128 85 151 149 95 270 -51 110 -34
151 85 205 85 38 113 60 137 107 19 38 20 52 14 152 -7 129 6 195 53 261 17
23 53 89 81 148 58 120 87 149 168 167 55 11 65 10 222 -31 76 -20 92 -22 145
-11 33 6 102 33 153 58 l94 46 101 -2 c68 -1 143 5 222 19 147 26 158 35 153
122 -3 56 -2 60 27 77 23 14 37 16 62 9 34 -9 35 -12 48 -91 4 -23 22 -58 48
-90 24 -28 57 -72 74 -97 55 -81 75 -93 146 -94 81 -1 132 28 147 84 9 33 7
48 -14 105 -37 96 -58 208 -46 239 5 15 64 79 131 143 66 65 129 134 140 154
10 20 31 81 46 135 17 63 35 107 50 122 62 62 62 78 -1 195 -51 97 -48 130 25
230 36 50 37 83 0 155 -15 31 -38 78 -49 103 -14 33 -38 60 -79 91 -79 62
-125 83 -215 102 -151 30 -171 49 -188 164 -16 117 -76 189 -192 233 -49 18
-71 21 -129 15 -62 -5 -73 -4 -107 18 -47 30 -100 89 -108 121 -3 14 2 55 12
91 17 63 17 69 0 154 -27 129 -17 155 74 190 123 47 157 133 85 217 -40 47
-65 104 -65 147 0 24 12 46 45 85 58 67 69 89 88 176 21 94 39 132 86 184 47
51 57 88 41 151 -24 92 -24 126 4 186 14 31 26 62 26 68 0 32 33 117 64 165
20 30 44 81 56 114 11 33 46 103 77 155 l57 94 -2 92 -3 93 61 59 c52 51 63
68 81 128 18 59 29 78 79 127 72 70 84 106 77 213 -4 59 0 108 14 179 10 54
19 121 19 149 0 30 12 85 31 139 28 81 30 95 20 134 -27 107 -8 155 108 266
122 119 132 142 130 310 -1 78 3 145 9 161 6 15 34 56 62 92 77 98 82 120 89
356 6 196 7 208 34 264 49 105 115 193 193 257 104 85 134 152 134 303 0 77
-24 186 -42 186 -11 0 -10 77 3 125 5 22 16 105 24 184 13 141 14 144 59 221
25 43 55 106 66 140 19 58 20 68 8 161 l-12 99 47 92 c26 51 68 120 93 153 59
78 94 147 94 185 0 22 -10 41 -35 65 -19 19 -39 44 -45 54 -24 47 -5 110 70
229 34 53 34 56 41 200 4 81 12 162 18 181 16 52 60 109 107 142 82 56 89 74
89 239 0 80 4 172 9 206 8 55 6 68 -19 129 -15 37 -29 91 -32 119 -4 47 0 59
50 156 65 125 111 276 103 335 -24 165 -19 185 71 303 l56 74 -26 107 c-26
102 -26 109 -12 157 8 28 30 71 48 95 19 24 39 55 46 68 19 34 57 170 84 301
22 103 37 152 83 270 7 19 13 62 14 95 1 133 25 256 65 334 39 79 48 146 25
205 -23 60 -13 116 39 221 53 105 78 200 88 330 5 59 2 79 -17 122 -31 72 -49
87 -99 78 -31 -5 -50 -17 -80 -51 -49 -56 -64 -116 -55 -223 l7 -78 -53 -54
c-74 -77 -83 -97 -88 -219 -3 -62 -10 -116 -19 -133 -7 -15 -38 -41 -69 -58
-30 -17 -60 -41 -66 -53 -8 -13 -12 -57 -10 -122 l3 -101 -49 -92 c-27 -51
-74 -125 -105 -164 -88 -114 -127 -177 -127 -207 0 -15 14 -46 33 -71 33 -44
57 -91 57 -111 0 -5 -31 -42 -68 -82 -75 -78 -87 -98 -102 -169 -14 -67 -31
-104 -78 -173 -48 -72 -50 -77 -61 -197 -8 -82 -15 -105 -45 -159 -19 -35 -49
-101 -66 -148 -17 -47 -44 -101 -59 -120 -42 -53 -57 -88 -75 -173 -17 -85
-32 -119 -81 -187 -18 -25 -40 -70 -50 -100 -23 -71 -100 -253 -121 -285 -9
-14 -19 -62 -24 -116 -10 -110 -37 -161 -117 -224 -52 -41 -85 -96 -78 -131 2
-11 13 -61 25 -112 17 -76 19 -100 10 -134 -17 -60 -45 -93 -114 -129 -73 -38
-121 -81 -147 -131 -16 -32 -19 -58 -18 -167 1 -147 -5 -165 -85 -262 -41 -50
-46 -61 -46 -105 0 -27 9 -77 20 -112 16 -52 18 -71 10 -109 -21 -91 -122
-259 -191 -317 -18 -15 -54 -38 -81 -52 -65 -33 -84 -67 -91 -164 -6 -94 -24
-125 -95 -165 -63 -37 -81 -53 -103 -97 -26 -50 -24 -84 7 -154 30 -68 42
-160 25 -192 -7 -12 -47 -40 -90 -61 -86 -44 -135 -91 -150 -148 -21 -76 -15
-95 83 -256 60 -96 66 -136 36 -220 -33 -93 -130 -266 -162 -289 -16 -11 -56
-30 -90 -44 -102 -40 -112 -58 -82 -148 22 -64 11 -98 -69 -218 l-62 -93 -6
-135 c-6 -151 -18 -191 -71 -235 -59 -50 -80 -86 -73 -127 8 -47 -17 -104 -77
-178 -57 -70 -63 -82 -78 -155 -6 -33 -22 -76 -34 -95 -77 -118 -89 -169 -62
-259 22 -76 21 -143 -3 -166 -11 -9 -52 -23 -92 -31 -82 -15 -142 -51 -167
-98 -9 -19 -16 -56 -16 -96 0 -57 5 -76 44 -155 41 -81 45 -96 44 -160 0 -62
-5 -80 -43 -153 -33 -66 -44 -101 -51 -163 -17 -144 -69 -187 -143 -116 -54
50 -64 115 -44 271 10 68 17 145 17 172 0 58 -73 277 -131 393 -53 106 -58
124 -69 258 -14 178 -51 238 -191 313 -108 59 -129 80 -170 175 -31 73 -34 88
-33 175 0 66 9 133 28 220 34 152 42 172 95 235 23 28 49 63 57 79 20 37 19
132 -2 185 -26 65 -59 87 -145 95 -133 12 -157 38 -169 182 -6 76 -16 120 -42
189 -19 50 -42 134 -51 188 -21 120 -33 146 -110 225 -60 61 -135 102 -187
102 -34 0 -84 -31 -115 -70 -84 -106 -244 -146 -405 -101 -104 29 -140 27
-224 -13 -80 -39 -143 -93 -152 -134 -10 -40 -52 -121 -91 -175 -29 -39 -51
-55 -121 -88 -48 -23 -95 -48 -104 -56 -30 -27 -31 -82 -3 -156 56 -151 16
-259 -130 -348 -71 -43 -96 -83 -96 -153 0 -65 2 -76 44 -176 28 -68 31 -84
29 -170 -1 -64 4 -111 15 -146 13 -44 15 -67 7 -136 -6 -48 -7 -136 -2 -208
14 -225 24 -291 53 -355 33 -71 46 -222 26 -302 -24 -100 -93 -301 -116 -338
-46 -75 -75 -146 -75 -183 0 -26 12 -57 40 -102 77 -125 74 -159 -24 -243
l-56 -48 2 -127 c3 -120 1 -130 -24 -185 -29 -62 -42 -121 -57 -253 -8 -78
-11 -85 -87 -204 -71 -111 -87 -130 -155 -179 -131 -95 -153 -151 -143 -355
l7 -135 -28 -43 c-54 -81 -108 -138 -192 -199 -109 -79 -116 -94 -108 -217 8
-118 0 -144 -55 -172 -72 -37 -119 -37 -196 -1 -83 39 -143 102 -178 186 -57
135 -83 449 -50 591 24 105 7 180 -66 289 -102 152 -104 172 -21 258 88 94
111 139 111 223 0 80 -35 275 -56 317 -18 34 -82 119 -98 129 -22 15 -84 8
-142 -16 -79 -32 -168 -42 -236 -26 -112 27 -148 67 -167 184 -15 93 -41 132
-110 170 -73 39 -115 32 -223 -41 -46 -30 -116 -71 -156 -91 -47 -22 -92 -55
-127 -90 -29 -30 -88 -75 -131 -101 -70 -41 -82 -53 -115 -111 -20 -36 -61
-110 -92 -165 -30 -55 -66 -110 -80 -123 -13 -13 -59 -36 -101 -52 -103 -38
-174 -88 -271 -187 -90 -92 -120 -106 -176 -79 -76 36 -89 122 -34 223 26 47
35 76 35 110 0 37 9 61 40 114 57 96 55 128 -11 214 -28 37 -56 83 -61 103
-14 49 5 109 53 167 48 59 53 77 45 174 -6 73 -5 80 29 150 l36 74 -16 106
c-9 58 -20 124 -25 146 -16 66 -11 105 21 195 44 121 89 304 89 359 0 25 -6
80 -14 121 -9 46 -12 90 -7 116 12 62 61 143 115 188 132 110 131 109 154 201
20 81 35 112 118 245 40 64 43 101 13 185 -26 76 -21 111 32 212 36 68 40 82
34 120 -3 24 -15 63 -25 86 -35 75 -22 161 32 220 28 30 57 42 144 63 54 12
67 12 105 -1 24 -9 55 -26 69 -40 14 -13 50 -40 80 -61 50 -34 62 -38 135 -42
44 -2 83 -7 87 -11 5 -4 10 -30 13 -59 5 -58 21 -89 48 -98 25 -8 46 22 47 64
0 42 -36 113 -61 119 -16 5 -19 15 -19 75 0 83 -16 152 -44 193 -30 44 -45 53
-106 61 -59 7 -99 23 -119 48 -10 12 -11 29 -2 79 13 76 4 112 -46 173 -49 61
-46 106 13 202 26 41 60 108 75 150 15 41 42 92 59 113 38 48 49 77 39 109 -4
14 -7 47 -8 74 -1 49 -1 49 87 135 76 74 92 95 112 150 24 67 47 93 158 189
74 64 87 86 103 178 18 105 49 157 158 264 54 53 105 107 114 121 10 14 22 61
27 104 5 43 17 89 26 103 16 24 17 25 128 18 104 -6 114 -5 153 16 146 80 317
160 368 173 32 8 97 15 144 15 56 0 110 7 160 21 60 17 88 20 136 14 33 -5 87
-9 121 -10 42 -2 80 -11 125 -31 74 -33 149 -37 213 -10 43 18 121 21 161 6
14 -5 56 -15 92 -20 37 -6 114 -27 172 -46 77 -26 119 -34 161 -33 44 2 71 -4
126 -29 38 -17 101 -38 139 -48 74 -19 105 -42 152 -117 27 -43 62 -67 145
-98 75 -28 145 -19 165 21 17 35 -1 59 -63 85 -49 20 -154 81 -164 95 -3 4
-28 18 -56 32 -52 26 -92 61 -121 104 -18 29 -87 78 -120 86 -12 3 -50 3 -85
-2 -71 -8 -87 -2 -112 44 -27 50 -51 60 -161 66 l-100 5 -33 50 c-51 77 -70
84 -217 78 -137 -6 -216 5 -306 42 -83 35 -233 48 -393 34 -163 -14 -261 -8
-355 25 l-73 26 -57 -21 c-31 -11 -96 -25 -146 -30 -110 -12 -151 -31 -190
-87 -16 -24 -46 -61 -65 -82 -35 -39 -36 -39 -137 -49 -96 -9 -106 -12 -180
-56 -93 -56 -130 -90 -188 -170 -53 -74 -226 -243 -289 -284 -27 -16 -73 -38
-104 -47 -41 -13 -70 -31 -103 -65 -40 -39 -51 -59 -74 -135 -25 -84 -30 -93
-95 -155 -37 -36 -72 -75 -78 -85 -5 -10 -12 -53 -16 -94 -3 -42 -20 -125 -36
-185 -17 -61 -30 -128 -31 -150 -2 -90 -46 -146 -127 -159 -72 -11 -111 -34
-155 -92 -23 -30 -74 -95 -112 -143 -59 -73 -75 -100 -93 -164 -22 -76 -23
-77 -75 -103 -44 -23 -70 -28 -172 -34 -84 -4 -141 -13 -192 -30 l-71 -23 -79
29 c-115 42 -197 41 -277 -5 -32 -19 -89 -57 -127 -85 -37 -28 -90 -59 -116
-70 -95 -37 -195 -99 -267 -164 -146 -133 -223 -185 -311 -212 -70 -21 -128
-72 -205 -182 -135 -192 -153 -208 -313 -287 -78 -38 -170 -81 -204 -96 -75
-33 -96 -55 -142 -147 -27 -53 -48 -81 -81 -105 -25 -18 -65 -48 -90 -66 -25
-19 -74 -50 -109 -68 -41 -22 -72 -47 -90 -73 -24 -37 -26 -46 -23 -139 1 -78
-2 -106 -14 -125 -20 -30 -72 -52 -124 -52 -60 0 -115 -33 -163 -98 -57 -77
-234 -255 -275 -276 -26 -14 -40 -15 -71 -6 -77 20 -121 111 -121 247 0 87
-13 112 -76 149 -60 35 -101 85 -107 131 -17 112 -17 152 -2 222 13 65 14 82
1 145 -8 40 -13 103 -10 145 3 60 -1 88 -22 149 l-25 75 49 51 c61 63 72 83
72 137 0 39 -5 47 -73 113 -82 79 -207 252 -207 287 0 13 23 44 64 83 35 33
68 71 75 83 28 54 -1 109 -82 156 -57 34 -123 106 -132 145 -8 38 11 77 60
123 92 87 99 199 19 305 -37 49 -51 101 -58 229 -6 109 -10 126 -43 195 -68
141 -56 214 55 335 76 82 91 121 92 225 0 47 5 102 10 122 12 42 85 122 127
140 16 6 75 12 133 12 92 2 111 5 155 28 105 54 210 181 260 313 l38 100 141
140 c191 191 260 225 456 225 152 0 237 56 259 171 21 102 40 129 156 207 79
53 144 123 185 197 57 104 80 119 201 131 43 4 88 16 114 30 56 29 176 116
239 171 27 24 90 66 140 93 102 55 135 60 233 35 67 -18 96 -13 176 27 42 21
69 44 100 85 69 93 100 120 148 132 143 37 197 80 238 193 40 107 60 131 128
156 32 12 94 44 138 72 121 76 162 84 280 50 171 -49 260 -9 304 135 43 138
71 165 173 165 113 0 178 43 249 166 38 67 76 85 203 96 113 9 150 24 270 102
71 46 93 67 146 142 35 49 75 103 90 120 15 17 46 69 68 115 23 46 67 113 97
149 40 47 60 81 71 120 25 90 43 131 96 217 87 142 95 199 52 348 -43 148 -65
180 -160 225 -42 21 -71 50 -217 219 -120 138 -155 160 -262 166 -88 4 -115
28 -151 139 -47 142 -130 195 -278 180 -174 -17 -236 -83 -257 -271 -12 -115
-22 -143 -64 -183 -35 -34 -38 -35 -143 -41 -126 -7 -152 -16 -212 -73 -88
-84 -119 -92 -212 -55 -66 26 -189 35 -285 20 -44 -7 -134 -36 -233 -76 -195
-79 -211 -87 -260 -132 -46 -41 -60 -81 -60 -176 0 -71 -20 -126 -56 -158 -11
-9 -49 -27 -86 -41 -133 -51 -194 -122 -204 -240 -7 -85 -22 -114 -63 -123
-24 -5 -39 1 -79 29 -124 89 -198 87 -357 -8 -85 -51 -127 -96 -149 -156 -11
-29 -33 -68 -49 -87 -32 -36 -123 -86 -229 -127 -35 -13 -129 -55 -209 -94
-129 -61 -155 -78 -216 -138 -57 -57 -75 -83 -102 -149 -18 -44 -44 -97 -57
-117 -21 -33 -29 -38 -63 -38 -24 0 -67 13 -112 35 -108 52 -192 44 -262 -23
-60 -57 -67 -80 -65 -200 1 -126 -5 -143 -89 -223 -97 -93 -139 -102 -212 -44
-50 40 -90 50 -171 42 -84 -7 -146 -45 -249 -152 -86 -89 -88 -92 -101 -160
-21 -118 -55 -155 -155 -170 -118 -17 -144 -43 -156 -162 -11 -105 -37 -181
-85 -246 -49 -67 -89 -82 -259 -97 -124 -12 -144 -11 -170 2 -40 21 -60 45
-84 99 -57 128 -56 202 4 295 53 82 55 124 12 210 -19 38 -38 84 -42 102 -10
46 -57 97 -137 148 -81 52 -98 81 -98 169 0 96 -27 139 -117 181 -89 42 -104
86 -73 209 32 123 26 163 -51 319 -59 121 -62 133 -61 195 0 37 6 79 11 95 6
15 11 49 11 75 0 41 -6 55 -45 105 -41 53 -75 133 -75 177 0 45 -40 107 -108
167 -54 48 -74 73 -86 110 -26 74 -31 177 -12 248 29 113 20 143 -81 256 -127
143 -183 246 -183 337 0 66 -23 127 -69 181 -96 114 -95 113 -101 309 -6 186
-12 213 -63 269 -19 20 -29 22 -139 22 l-118 0 0 -1290z m6230 -6776 c101 -67
123 -96 117 -153 -2 -25 -21 -86 -43 -136 -36 -85 -39 -97 -44 -220 -6 -146
-19 -181 -75 -208 -59 -28 -102 -76 -144 -159 -34 -68 -44 -103 -57 -193 -10
-73 -26 -134 -46 -179 -32 -73 -33 -96 -10 -204 13 -60 -3 -107 -49 -144 -20
-16 -50 -51 -67 -76 -17 -26 -53 -65 -80 -87 -27 -22 -57 -54 -67 -71 -16 -30
-16 -33 6 -75 12 -24 32 -57 45 -74 12 -16 28 -52 35 -78 18 -73 -1 -140 -85
-312 -41 -82 -83 -173 -92 -201 -17 -49 -17 -55 -1 -122 12 -48 17 -112 17
-205 l0 -134 -74 -69 c-91 -86 -98 -106 -63 -207 14 -40 30 -103 36 -142 6
-38 22 -104 35 -145 31 -91 31 -101 6 -181 -16 -52 -30 -74 -75 -119 -54 -52
-95 -114 -95 -142 0 -6 24 -51 53 -98 64 -101 110 -184 130 -233 15 -34 14
-38 -18 -104 -29 -60 -34 -84 -40 -175 -9 -126 -3 -150 68 -266 58 -95 117
-152 178 -172 61 -20 114 -75 128 -130 6 -25 21 -65 34 -88 30 -59 137 -169
217 -222 96 -65 117 -92 150 -200 40 -128 62 -158 152 -205 40 -21 83 -47 96
-58 28 -26 29 -80 2 -127 -77 -134 -109 -219 -112 -296 -1 -32 7 -53 40 -104
23 -35 42 -72 42 -82 0 -32 -26 -81 -72 -138 -61 -74 -92 -126 -111 -184 -23
-66 -21 -92 7 -178 22 -67 24 -80 15 -158 -12 -115 -18 -140 -40 -176 -18 -30
-77 -63 -140 -79 -14 -4 -43 -20 -62 -36 -50 -41 -68 -104 -56 -195 13 -107
10 -191 -10 -290 -24 -117 -39 -144 -127 -231 -41 -40 -74 -79 -74 -86 0 -29
-60 -135 -93 -164 -20 -18 -56 -37 -79 -43 -183 -46 -200 -64 -197 -210 3
-114 -2 -124 -86 -175 -70 -43 -98 -80 -118 -157 -26 -100 -35 -110 -133 -143
-85 -29 -90 -32 -111 -75 -13 -24 -23 -58 -23 -75 0 -83 -191 -271 -416 -410
-100 -62 -211 -144 -245 -181 -15 -16 -47 -61 -72 -100 -85 -134 -152 -168
-313 -158 -122 8 -152 -4 -186 -76 -21 -43 -45 -68 -77 -81 -9 -3 -36 7 -60
23 -50 31 -81 34 -176 16 -58 -10 -65 -10 -99 11 -20 13 -50 43 -67 67 -44 65
-100 89 -270 114 -64 9 -88 8 -145 -5 -89 -21 -103 -14 -197 88 -117 130 -186
153 -341 118 -124 -27 -128 -25 -140 101 -3 31 -9 64 -12 73 -4 9 -40 32 -81
52 -93 44 -126 72 -148 125 -24 59 -23 169 2 233 17 42 33 60 104 113 96 72
113 98 111 165 -1 60 -25 102 -82 145 -104 77 -112 95 -85 192 27 100 29 118
15 193 -14 74 -9 123 26 251 15 54 15 61 -1 96 -9 20 -29 52 -45 70 -16 18
-34 52 -40 75 -15 55 -9 67 90 170 142 148 159 229 71 339 -45 56 -42 95 10
143 54 50 79 100 86 177 5 55 1 75 -26 150 -17 48 -31 103 -31 123 0 35 67
250 96 304 8 16 29 40 48 54 53 40 84 96 112 202 56 206 56 198 -1 333 -16 36
-30 83 -33 106 -6 54 25 114 80 153 24 16 78 64 121 105 43 42 81 76 86 76 4
0 39 25 77 56 38 31 103 72 144 91 149 68 161 76 180 113 9 19 21 53 24 74 13
69 38 117 112 216 39 53 78 108 85 121 7 13 16 73 19 134 6 96 11 122 44 204
31 79 37 102 31 138 -8 53 -26 99 -54 134 -33 43 -61 117 -61 164 0 45 22 162
38 205 5 14 31 53 56 87 26 34 66 100 89 145 l42 83 -3 158 c-3 180 3 204 76
291 31 37 43 62 47 95 15 122 42 159 164 230 84 50 148 109 157 147 4 15 2 41
-5 59 -28 78 -1 127 78 141 62 11 106 34 123 62 8 15 19 63 22 107 8 91 8 94
46 230 36 131 51 164 91 202 34 32 174 134 209 153 31 16 60 76 71 142 15 94
16 97 94 178 91 95 157 187 226 319 60 117 116 184 203 247 64 47 93 84 129
166 28 63 58 89 130 117 112 41 174 77 228 131 98 98 117 169 83 320 l-17 72
24 24 c23 23 28 24 98 15 109 -14 206 17 291 94 14 12 32 25 40 28 36 15 91
-3 160 -49z m5053 -4487 c70 -37 124 -94 133 -142 3 -20 1 -76 -5 -124 -13
-101 -4 -139 50 -217 42 -62 68 -138 75 -226 7 -87 20 -119 74 -184 22 -27 46
-66 52 -86 14 -47 -1 -72 -77 -128 -65 -48 -85 -76 -92 -127 -4 -33 0 -45 31
-83 48 -61 54 -96 26 -166 -29 -70 -65 -98 -170 -130 -98 -30 -143 -67 -191
-156 -43 -82 -45 -144 -4 -215 82 -140 109 -227 91 -297 -8 -31 -56 -60 -126
-76 -43 -10 -64 -22 -95 -54 -68 -70 -93 -116 -110 -199 -18 -93 -47 -152
-108 -227 -31 -38 -53 -81 -73 -140 -16 -46 -42 -105 -59 -130 -30 -45 -48
-57 -157 -104 -58 -25 -98 -69 -98 -109 0 -10 23 -47 50 -83 53 -69 76 -114
91 -177 11 -46 -5 -82 -66 -148 -24 -26 -56 -71 -71 -100 -38 -76 -79 -134
-146 -206 -32 -35 -69 -88 -84 -120 -33 -77 -56 -99 -142 -139 -81 -39 -93
-56 -131 -183 -12 -40 -46 -124 -76 -186 -45 -93 -64 -121 -114 -167 -105 -98
-161 -113 -253 -66 -39 19 -79 81 -92 144 -9 40 -33 62 -128 114 -102 55 -114
72 -153 223 -18 69 -65 164 -112 230 -46 63 -96 206 -96 277 0 65 14 95 80
171 75 85 97 126 97 178 -1 57 -33 131 -83 191 -53 64 -62 97 -55 204 8 116
-6 182 -56 266 -33 56 -45 95 -41 135 1 6 21 42 46 80 50 78 69 147 59 214
-10 63 -45 96 -119 111 -82 17 -138 43 -158 73 -57 88 38 178 203 193 88 7 98
12 166 73 51 46 124 91 149 91 8 0 55 14 104 30 87 29 94 30 173 20 229 -28
338 2 392 109 14 26 45 74 70 107 26 32 61 82 80 109 39 60 81 97 147 131 27
13 82 53 123 89 43 37 102 78 139 94 111 50 128 98 68 192 -37 60 -51 103 -51
161 0 65 17 95 82 143 85 64 109 89 153 161 27 45 63 87 105 120 34 28 69 62
76 75 7 13 32 80 55 149 66 199 104 255 188 270 54 10 100 1 164 -33z"/>
<path d="M18509 22408 c-7 -17 -52 -73 -100 -124 -93 -99 -94 -100 -103 -221
-3 -42 -14 -85 -35 -128 -16 -36 -35 -93 -41 -126 -15 -79 -26 -105 -73 -159
-56 -64 -72 -101 -97 -220 -26 -121 -37 -146 -94 -209 -23 -25 -53 -62 -67
-81 -13 -19 -47 -61 -76 -92 -54 -59 -58 -71 -54 -150 4 -58 -18 -145 -44
-176 -13 -15 -48 -41 -79 -56 -65 -33 -104 -69 -113 -105 -9 -36 -9 -102 0
-271 l9 -145 -36 -73 c-34 -69 -36 -80 -36 -170 0 -116 -10 -158 -53 -213 -46
-61 -73 -77 -154 -94 -88 -18 -106 -28 -129 -74 -14 -28 -18 -60 -19 -146 l0
-110 -59 -129 c-66 -142 -76 -196 -57 -294 29 -148 23 -190 -39 -287 -21 -33
-47 -83 -58 -110 -11 -28 -30 -67 -42 -88 -21 -35 -22 -46 -16 -133 8 -119 -7
-160 -83 -223 -63 -53 -87 -96 -96 -176 -10 -78 -21 -99 -94 -166 -34 -33 -63
-69 -67 -85 -12 -52 -36 -88 -104 -160 -76 -80 -94 -122 -88 -198 3 -42 12
-62 45 -104 55 -69 87 -153 78 -209 -8 -58 -55 -118 -115 -148 -153 -78 -189
-187 -100 -300 75 -94 75 -95 74 -160 -2 -76 -53 -230 -101 -305 -19 -30 -54
-73 -77 -95 -58 -55 -69 -79 -72 -159 -2 -38 -8 -91 -15 -118 -9 -38 -9 -71 1
-141 15 -116 7 -139 -52 -160 -24 -8 -68 -20 -98 -27 -85 -17 -131 -67 -132
-142 -1 -55 23 -102 59 -116 41 -16 268 -24 337 -13 46 8 66 7 92 -4 19 -8 34
-17 34 -21 0 -4 -16 -22 -35 -40 -30 -27 -35 -38 -35 -76 0 -55 39 -136 86
-177 35 -31 72 -45 164 -58 48 -7 58 -13 87 -51 18 -24 37 -51 42 -60 9 -15
19 -8 78 50 108 106 156 114 251 42 31 -25 46 -29 98 -29 75 0 120 27 214 128
65 70 159 152 253 219 62 44 141 129 157 169 28 66 -3 114 -121 192 -119 78
-132 144 -54 272 108 176 145 271 145 374 0 69 31 122 102 172 145 102 229
221 264 375 27 124 17 196 -48 329 -53 109 -53 110 -49 190 4 98 5 186 1 286
-3 65 1 84 21 125 26 53 53 71 150 98 70 20 100 51 106 110 7 62 -9 97 -72
151 -73 62 -78 81 -66 261 7 115 15 165 34 219 44 123 58 148 122 215 35 36
68 78 74 93 19 48 12 117 -24 257 -19 74 -35 144 -35 156 0 53 34 127 100 215
89 120 130 196 130 244 0 20 -10 68 -21 107 -36 118 -20 175 88 307 59 72 68
113 54 236 -23 204 -12 270 52 319 71 54 91 110 75 216 -8 57 -7 89 11 192 22
126 21 137 -8 255 -15 58 -2 86 67 149 69 62 103 122 132 229 12 44 33 107 48
140 21 50 26 77 28 160 1 70 9 129 27 195 14 52 28 131 32 175 8 101 20 145
56 217 53 105 71 98 -250 98 l-279 0 -13 -32z"/>
<path d="M20929 22413 c-44 -87 -99 -175 -143 -228 -99 -120 -122 -201 -135
-490 -7 -132 -13 -182 -29 -225 -47 -125 -82 -239 -92 -298 -12 -71 -79 -221
-135 -302 l-38 -55 -1 -117 -1 -116 -62 -119 c-34 -66 -72 -144 -83 -174 -12
-30 -38 -72 -59 -94 -107 -114 -109 -127 -56 -280 19 -55 35 -116 35 -135 0
-39 -29 -109 -64 -155 -29 -37 -56 -114 -56 -158 -1 -18 -7 -59 -15 -92 -8
-33 -15 -95 -15 -137 0 -119 -17 -151 -101 -193 -106 -54 -113 -72 -128 -305
-11 -178 -21 -211 -93 -314 -53 -77 -56 -95 -33 -187 18 -68 10 -118 -32 -208
-18 -40 -30 -90 -40 -174 -18 -153 -60 -285 -132 -417 -87 -158 -96 -196 -96
-440 0 -158 -1 -167 -25 -207 -67 -114 -145 -212 -198 -252 -32 -24 -72 -63
-90 -86 -32 -43 -33 -44 -31 -143 3 -120 -5 -136 -85 -181 -55 -32 -116 -91
-116 -114 0 -7 -7 -56 -14 -110 -15 -104 -39 -164 -101 -249 -45 -61 -71 -77
-152 -95 -82 -17 -106 -37 -128 -111 -46 -157 -78 -213 -188 -329 -138 -148
-174 -199 -197 -282 -17 -65 -5 -115 45 -175 23 -29 47 -62 53 -73 7 -12 13
-92 14 -190 l3 -169 -30 -38 c-75 -93 -107 -144 -121 -196 -8 -30 -34 -111
-57 -180 -68 -207 -55 -307 51 -379 135 -92 134 -120 -8 -224 -65 -48 -88 -96
-107 -228 -13 -88 -14 -124 -5 -170 11 -61 9 -79 -30 -194 -23 -69 -20 -96 19
-215 l27 -82 -17 -101 c-10 -56 -17 -114 -17 -128 0 -15 -11 -55 -24 -90 -13
-35 -27 -91 -30 -124 -4 -33 -14 -98 -22 -145 -9 -46 -19 -117 -24 -156 -9
-84 -21 -109 -111 -236 -37 -51 -79 -117 -93 -146 -35 -69 -56 -180 -56 -293
0 -57 -9 -136 -26 -217 -34 -168 -33 -218 6 -312 36 -87 35 -117 -11 -179 -39
-54 -79 -220 -79 -327 0 -121 -36 -302 -89 -444 -29 -79 -31 -94 -31 -217 0
-118 -3 -140 -26 -200 -42 -110 -84 -357 -90 -523 -3 -80 -13 -179 -21 -220
-23 -110 -23 -388 1 -503 21 -102 17 -134 -23 -185 -16 -20 -38 -59 -49 -87
-10 -27 -41 -86 -69 -131 -69 -109 -96 -165 -122 -256 l-22 -77 20 -43 c11
-24 30 -55 42 -70 29 -36 21 -76 -36 -163 -95 -147 -106 -259 -38 -409 24 -52
38 -101 41 -137 4 -53 0 -65 -61 -192 -43 -89 -67 -154 -71 -189 -11 -88 -16
-105 -38 -130 -71 -81 -98 -150 -98 -252 0 -65 -23 -207 -42 -266 -6 -19 -28
-69 -50 -110 -41 -81 -40 -74 -38 -290 1 -69 -3 -154 -9 -190 -6 -36 -11 -103
-11 -150 0 -47 -5 -101 -10 -120 -6 -19 -15 -109 -19 -200 -9 -154 -12 -172
-46 -270 -41 -114 -49 -200 -31 -325 l8 -60 -66 -66 c-74 -73 -96 -124 -96
-225 0 -64 38 -125 115 -183 62 -47 111 -123 121 -188 8 -52 -8 -101 -55 -172
-32 -49 -36 -61 -36 -120 1 -110 61 -204 175 -276 47 -30 65 -62 85 -152 8
-37 24 -98 34 -134 19 -66 19 -67 -1 -100 -11 -19 -41 -56 -67 -84 -62 -66
-92 -130 -103 -223 -5 -43 -12 -91 -14 -107 -2 -17 -20 -55 -39 -85 -73 -113
-70 -160 12 -208 110 -63 157 -151 134 -251 -13 -61 -44 -88 -125 -112 -101
-29 -116 -41 -116 -88 0 -32 6 -44 35 -70 20 -17 53 -40 74 -51 21 -10 50 -33
65 -50 23 -28 26 -40 26 -113 0 -45 7 -122 15 -172 8 -50 15 -123 15 -162 l0
-73 351 0 c326 0 353 1 377 19 15 10 44 24 65 31 42 13 70 50 88 115 22 81
129 201 208 236 67 28 104 72 131 154 12 36 37 85 56 108 35 43 64 86 118 171
23 36 55 64 128 112 101 66 147 116 169 182 29 90 51 123 114 168 79 56 130
112 157 172 20 43 21 63 19 216 -2 134 1 179 15 221 25 81 45 94 177 120 16 3
40 18 54 33 23 25 25 32 19 97 -3 39 -9 125 -12 192 l-6 121 43 84 c23 45 51
100 61 122 11 21 35 96 53 168 19 71 41 142 51 156 9 15 43 52 74 82 49 47 61
65 79 122 23 76 47 126 103 216 l40 62 -13 104 c-16 128 -8 156 66 254 64 84
81 116 95 178 19 84 8 109 -69 158 -37 24 -78 57 -90 72 -26 33 -24 50 21 144
50 104 46 154 -27 296 -68 132 -78 192 -51 284 9 30 23 100 32 155 20 135 71
347 101 420 35 82 49 239 34 361 -13 112 1 211 55 379 38 116 38 118 7 248
-14 61 -15 87 -4 227 7 87 10 196 6 242 -3 46 -1 175 6 288 19 312 19 310 -23
372 -20 29 -39 64 -43 78 -6 26 4 39 109 140 64 61 84 108 96 225 12 113 32
196 84 340 35 97 36 104 35 230 -2 132 4 162 40 214 10 14 22 37 26 51 4 14
20 52 35 85 47 105 59 146 91 325 17 96 46 238 65 315 25 99 36 174 41 255 5
111 4 118 -26 205 -34 97 -40 169 -17 213 7 15 21 61 29 102 19 94 69 232 101
281 14 20 60 61 104 92 129 91 147 128 118 251 -9 39 -16 80 -16 91 0 28 87
293 105 321 25 38 67 73 132 110 71 40 116 87 131 136 6 18 13 70 16 116 9
120 76 308 146 411 20 31 49 81 63 112 30 62 64 87 157 113 86 24 158 28 254
16 108 -13 138 -28 170 -83 42 -71 49 -125 32 -251 -21 -160 -30 -442 -15
-486 6 -19 37 -62 69 -95 32 -33 63 -70 69 -82 6 -12 11 -65 11 -118 0 -92 2
-102 41 -189 43 -98 108 -334 116 -429 5 -46 0 -75 -22 -144 -24 -72 -39 -98
-92 -161 -94 -111 -123 -156 -135 -215 -10 -48 -9 -57 16 -117 58 -135 58
-139 52 -240 -25 -393 -25 -395 78 -574 70 -122 102 -232 105 -357 1 -57 58
-111 149 -140 56 -18 82 -32 108 -61 31 -35 34 -42 28 -81 -4 -23 -17 -62 -30
-87 -31 -59 -30 -106 4 -193 16 -40 32 -85 36 -100 6 -27 32 -47 170 -129 65
-38 79 -72 86 -205 5 -112 6 -113 60 -218 30 -59 58 -108 62 -111 4 -3 8 1595
8 3551 l0 3557 -77 -7 c-43 -4 -112 -13 -153 -22 -111 -22 -236 -22 -280 1
-46 24 -101 67 -176 136 -75 69 -122 85 -254 85 -71 0 -107 -5 -140 -19 -31
-13 -77 -20 -150 -23 -120 -4 -166 -16 -229 -55 -25 -15 -50 -28 -57 -28 -38
0 -107 -45 -150 -98 -140 -175 -242 -146 -263 76 -8 94 -24 133 -66 172 -16
14 -41 45 -56 69 -42 65 -40 129 9 268 21 59 44 140 51 178 18 106 43 143 122
181 83 40 119 81 119 136 0 37 -6 46 -73 112 -106 103 -109 126 -37 318 51
138 59 149 153 221 42 32 62 87 51 145 -4 20 -28 66 -53 102 -26 36 -71 114
-100 174 -70 143 -74 193 -20 279 35 54 36 60 31 125 -3 50 1 88 16 143 12 41
24 111 27 154 4 47 17 107 32 145 13 35 31 101 38 145 13 83 26 118 70 195 38
65 32 124 -23 216 -24 39 -47 86 -53 105 -16 51 -12 157 10 266 11 54 18 112
15 128 -3 17 -12 68 -21 114 -16 91 -13 154 14 276 19 88 35 118 88 176 73 78
79 97 77 239 -2 83 -9 152 -22 208 -27 112 -25 139 11 208 29 55 31 62 25 129
-19 196 -19 186 9 265 27 77 36 159 50 445 7 145 17 191 57 273 33 68 32 48
12 256 -6 58 -2 77 40 203 60 180 61 209 6 338 -51 122 -53 164 -13 226 40 59
50 90 62 184 6 44 13 95 17 113 l7 32 -126 0 -125 0 -13 -27z"/>
<path d="M8915 22091 c-9 -16 43 -122 64 -128 18 -4 17 -7 -6 -49 -22 -39 -25
-55 -21 -115 3 -60 7 -73 31 -95 37 -34 47 -63 47 -133 0 -57 0 -57 49 -95 50
-37 101 -118 101 -159 0 -11 -8 -57 -17 -103 -17 -79 -17 -88 -1 -148 9 -35
38 -115 63 -178 25 -62 65 -163 89 -224 24 -61 57 -140 74 -175 18 -36 35 -95
42 -137 7 -51 23 -97 53 -155 23 -45 55 -112 70 -148 16 -37 53 -96 85 -134
100 -119 102 -122 102 -195 0 -96 28 -325 44 -363 18 -43 54 -73 96 -82 86
-18 118 -58 144 -185 21 -101 64 -167 151 -233 76 -57 129 -126 146 -190 6
-23 15 -85 19 -139 11 -142 59 -235 195 -378 39 -41 68 -83 80 -114 15 -41 24
-51 61 -67 63 -28 98 -62 139 -132 20 -34 45 -77 57 -95 14 -23 23 -61 30
-125 10 -109 25 -134 94 -160 142 -53 195 -102 239 -217 35 -91 88 -152 153
-176 141 -50 258 -135 317 -232 47 -78 103 -79 162 -3 21 26 52 58 70 70 42
30 124 50 203 49 53 -1 79 5 139 31 40 18 108 39 150 47 138 27 162 36 220 84
77 65 152 138 181 179 38 52 46 58 100 76 30 10 71 36 103 64 28 27 70 54 92
61 55 17 71 34 95 97 26 70 26 127 0 153 -24 24 -27 24 -74 5 -29 -13 -71 -14
-233 -10 -277 7 -296 14 -349 112 -39 73 -60 88 -166 116 -105 29 -146 55
-198 128 -49 70 -95 111 -162 145 -28 14 -81 56 -117 93 -58 59 -77 72 -151
99 -159 60 -220 95 -309 178 -46 44 -101 91 -123 105 -51 34 -65 56 -92 137
-19 60 -27 71 -91 124 -38 33 -114 92 -167 132 -104 78 -126 101 -180 186 -52
82 -84 106 -157 113 -110 12 -133 34 -170 162 -47 160 -95 233 -202 306 -67
45 -89 94 -89 196 0 61 -2 66 -42 109 -23 24 -81 74 -129 109 -110 81 -136
115 -161 212 -12 50 -37 107 -68 158 -26 44 -56 97 -66 118 -14 29 -35 49 -86
78 -37 22 -72 49 -78 59 -6 11 -12 56 -13 101 -2 79 -3 81 -39 115 -28 25 -47
34 -73 34 -40 0 -81 18 -108 47 -19 22 -24 73 -12 150 9 58 -5 124 -37 184
-19 33 -108 99 -135 99 -6 0 -22 13 -36 29 -29 35 -70 213 -68 304 1 56 -2 64
-31 94 -31 32 -80 45 -93 24z"/>
<path d="M16698 21948 c-51 -73 -20 -177 66 -223 37 -20 37 -20 49 0 31 52 21
113 -26 164 -14 14 -32 41 -41 59 -9 17 -18 32 -21 32 -2 0 -14 -15 -27 -32z"/>
<path d="M8050 13850 c-22 -40 7 -90 40 -70 9 6 10 18 4 46 -11 44 -28 54 -44
24z"/>
</g>
</svg>
